# xmcd
#
# Track frame offsets:
#	150
#	11863
#	24051
#	36088
#	48147
#	60153
#	73391
#	85448
#	97424
#	107900
#	120163
#	132906
#	145618
#	158382
#	171145
#	181367
#	193436
#	209005
#	221468
#	234247
#	246778
#	258528
#
# Disc length: 3602 seconds
#
# Revision: 1
# Processed by: cddbd v1.5.2PL0 Copyright (c) Steve Scherf et al.
# Submitted via: audiograbber 1.82.02
#
DISCID=350e1016
DTITLE=Arthur Smith - Fiddlin' Arthur Smith
DYEAR=1940
DGENRE=country
TTITLE0=Straw Breakdown
TTITLE1=Fiddler's Blues
TTITLE2=I've Had a Big Time Today
TTITLE3=Going to Town
TTITLE4=Peacock Rag
TTITLE5=Weary Weary World
TTITLE6=Indian Creek
TTITLE7=Dickson County Blues No 2
TTITLE8=I'm Bound to Ride
TTITLE9=K C Stomp
TTITLE10=Gypsy's Warning
TTITLE11=Bonapart's Retreat
TTITLE12=Take Me Back to Tennessee
TTITLE13=Paris Waltz
TTITLE14=In the Pines
TTITLE15=Dickson County Blues
TTITLE16=Little Darling
TTITLE17=Red Apple Rag
TTITLE18=Adieu False Heart
TTITLE19=Cheatham County Breakdown
TTITLE20=Hesitating Blues
TTITLE21=Smith's Rag
EXTD=
EXTT0=
EXTT1=
EXTT2=
EXTT3=
EXTT4=
EXTT5=
EXTT6=
EXTT7=
EXTT8=
EXTT9=
EXTT10=
EXTT11=
EXTT12=
EXTT13=
EXTT14=
EXTT15=
EXTT16=
EXTT17=
EXTT18=
EXTT19=
EXTT20=
EXTT21=
PLAYORDER=
